<mxfile host="app.diagrams.net" modified="2024-05-03T08:11:42.270Z" agent="Mozilla/5.0 (Windows NT 10.0; Win64; x64) AppleWebKit/537.36 (KHTML, like Gecko) Chrome/124.0.0.0 Safari/537.36" etag="GfyHREGlrrsZG1wv74sp" version="24.3.1" type="github">
  <diagram id="C5RBs43oDa-KdzZeNtuy" name="Page-1">
    <mxGraphModel dx="1843" dy="883" grid="1" gridSize="10" guides="1" tooltips="1" connect="1" arrows="1" fold="1" page="1" pageScale="1" pageWidth="1169" pageHeight="827" math="0" shadow="0">
      <root>
        <mxCell id="WIyWlLk6GJQsqaUBKTNV-0" />
        <mxCell id="WIyWlLk6GJQsqaUBKTNV-1" parent="WIyWlLk6GJQsqaUBKTNV-0" />
        <mxCell id="zkfFHV4jXpPFQw0GAbJ--0" value="paddleocr.py  PPStructure" style="swimlane;fontStyle=2;align=center;verticalAlign=top;childLayout=stackLayout;horizontal=1;startSize=26;horizontalStack=0;resizeParent=1;resizeLast=0;collapsible=1;marginBottom=0;rounded=0;shadow=0;strokeWidth=1;" parent="WIyWlLk6GJQsqaUBKTNV-1" vertex="1">
          <mxGeometry x="80" y="40" width="240" height="330" as="geometry">
            <mxRectangle x="230" y="140" width="160" height="26" as="alternateBounds" />
          </mxGeometry>
        </mxCell>
        <mxCell id="fFpk34Q_P3umQofqK6B3-12" value="&lt;span style=&quot;text-wrap: nowrap;&quot;&gt;__init__&lt;/span&gt;" style="shape=process;whiteSpace=wrap;html=1;backgroundOutline=1;" parent="zkfFHV4jXpPFQw0GAbJ--0" vertex="1">
          <mxGeometry y="26" width="240" height="30" as="geometry" />
        </mxCell>
        <mxCell id="fFpk34Q_P3umQofqK6B3-44" value="&lt;div style=&quot;box-sizing:border-box;width:100%;background:#e4e4e4;padding:2px;&quot;&gt;Parameters&lt;/div&gt;&lt;table style=&quot;width:100%;font-size:1em;&quot; cellpadding=&quot;2&quot; cellspacing=&quot;0&quot;&gt;&lt;tbody&gt;&lt;tr&gt;&lt;td&gt;&lt;br&gt;&lt;/td&gt;&lt;td&gt;&lt;span style=&quot;text-wrap: nowrap;&quot;&gt;use_gpu&lt;br&gt;&lt;/span&gt;structure_version&lt;br&gt;mode: [structure]&lt;br&gt;show_log&lt;br&gt;rec_model_dir&lt;br&gt;det_model_dir&lt;br&gt;table_model_dir&lt;br&gt;layout_model_dir&lt;br&gt;&lt;br&gt;&lt;/td&gt;&lt;/tr&gt;&lt;tr&gt;&lt;td&gt;&lt;br&gt;&lt;/td&gt;&lt;td&gt;&lt;br&gt;&lt;/td&gt;&lt;/tr&gt;&lt;tr&gt;&lt;td&gt;&lt;/td&gt;&lt;td&gt;&lt;br&gt;&lt;/td&gt;&lt;/tr&gt;&lt;/tbody&gt;&lt;/table&gt;" style="verticalAlign=top;align=left;overflow=fill;html=1;whiteSpace=wrap;" parent="zkfFHV4jXpPFQw0GAbJ--0" vertex="1">
          <mxGeometry y="56" width="240" height="124" as="geometry" />
        </mxCell>
        <mxCell id="zkfFHV4jXpPFQw0GAbJ--4" value="" style="line;html=1;strokeWidth=1;align=left;verticalAlign=middle;spacingTop=-1;spacingLeft=3;spacingRight=3;rotatable=0;labelPosition=right;points=[];portConstraint=eastwest;" parent="zkfFHV4jXpPFQw0GAbJ--0" vertex="1">
          <mxGeometry y="180" width="240" height="40" as="geometry" />
        </mxCell>
        <mxCell id="fFpk34Q_P3umQofqK6B3-15" value="OCR" style="shape=process;whiteSpace=wrap;html=1;backgroundOutline=1;" parent="zkfFHV4jXpPFQw0GAbJ--0" vertex="1">
          <mxGeometry y="220" width="240" height="30" as="geometry" />
        </mxCell>
        <mxCell id="fFpk34Q_P3umQofqK6B3-43" value="&lt;div style=&quot;box-sizing:border-box;width:100%;background:#e4e4e4;padding:2px;&quot;&gt;Parameters&lt;/div&gt;&lt;table style=&quot;width:100%;font-size:1em;&quot; cellpadding=&quot;2&quot; cellspacing=&quot;0&quot;&gt;&lt;tbody&gt;&lt;tr&gt;&lt;td&gt;&lt;br&gt;&lt;/td&gt;&lt;td&gt;&lt;span style=&quot;text-wrap: nowrap;&quot;&gt;img&lt;br&gt;&lt;/span&gt;return_ocr_result_in_table&lt;br&gt;&lt;br&gt;&lt;/td&gt;&lt;/tr&gt;&lt;tr&gt;&lt;td&gt;&lt;br&gt;&lt;/td&gt;&lt;td&gt;&lt;br&gt;&lt;/td&gt;&lt;/tr&gt;&lt;tr&gt;&lt;td&gt;&lt;/td&gt;&lt;td&gt;&lt;br&gt;&lt;/td&gt;&lt;/tr&gt;&lt;/tbody&gt;&lt;/table&gt;" style="verticalAlign=top;align=left;overflow=fill;html=1;whiteSpace=wrap;" parent="zkfFHV4jXpPFQw0GAbJ--0" vertex="1">
          <mxGeometry y="250" width="240" height="60" as="geometry" />
        </mxCell>
        <mxCell id="fFpk34Q_P3umQofqK6B3-34" value="predict_system.py StructureSystem" style="swimlane;fontStyle=2;align=center;verticalAlign=top;childLayout=stackLayout;horizontal=1;startSize=26;horizontalStack=0;resizeParent=1;resizeLast=0;collapsible=1;marginBottom=0;rounded=0;shadow=0;strokeWidth=1;" parent="WIyWlLk6GJQsqaUBKTNV-1" vertex="1">
          <mxGeometry x="436" y="40" width="290" height="520" as="geometry">
            <mxRectangle x="230" y="140" width="160" height="26" as="alternateBounds" />
          </mxGeometry>
        </mxCell>
        <mxCell id="fFpk34Q_P3umQofqK6B3-35" value="&lt;span style=&quot;text-wrap: nowrap;&quot;&gt;__init__&lt;/span&gt;" style="shape=process;whiteSpace=wrap;html=1;backgroundOutline=1;" parent="fFpk34Q_P3umQofqK6B3-34" vertex="1">
          <mxGeometry y="26" width="290" height="34" as="geometry" />
        </mxCell>
        <mxCell id="fFpk34Q_P3umQofqK6B3-40" value="&lt;div style=&quot;box-sizing:border-box;width:100%;background:#e4e4e4;padding:2px;&quot;&gt;Parameters&lt;/div&gt;&lt;table style=&quot;width:100%;font-size:1em;&quot; cellpadding=&quot;2&quot; cellspacing=&quot;0&quot;&gt;&lt;tbody&gt;&lt;tr&gt;&lt;td&gt;&lt;br&gt;&lt;/td&gt;&lt;td&gt;mode: [structure, kie]&lt;br&gt;recovery: 版面恢复&lt;br&gt;image_orientation: 图像方向分析&lt;br&gt;layout： 版面分析，default true&lt;br&gt;table: 表格识别，default true&lt;br&gt;&lt;/td&gt;&lt;/tr&gt;&lt;tr&gt;&lt;td&gt;&lt;br&gt;&lt;/td&gt;&lt;td&gt;&lt;br&gt;&lt;/td&gt;&lt;/tr&gt;&lt;tr&gt;&lt;td&gt;&lt;/td&gt;&lt;td&gt;&lt;br&gt;&lt;/td&gt;&lt;/tr&gt;&lt;/tbody&gt;&lt;/table&gt;" style="verticalAlign=top;align=left;overflow=fill;html=1;whiteSpace=wrap;" parent="fFpk34Q_P3umQofqK6B3-34" vertex="1">
          <mxGeometry y="60" width="290" height="100" as="geometry" />
        </mxCell>
        <mxCell id="fFpk34Q_P3umQofqK6B3-37" value="" style="line;html=1;strokeWidth=1;align=left;verticalAlign=middle;spacingTop=-1;spacingLeft=3;spacingRight=3;rotatable=0;labelPosition=right;points=[];portConstraint=eastwest;" parent="fFpk34Q_P3umQofqK6B3-34" vertex="1">
          <mxGeometry y="160" width="290" height="30" as="geometry" />
        </mxCell>
        <mxCell id="fFpk34Q_P3umQofqK6B3-38" value="__call__" style="shape=process;whiteSpace=wrap;html=1;backgroundOutline=1;" parent="fFpk34Q_P3umQofqK6B3-34" vertex="1">
          <mxGeometry y="190" width="290" height="30" as="geometry" />
        </mxCell>
        <mxCell id="fFpk34Q_P3umQofqK6B3-46" value="&lt;div style=&quot;box-sizing:border-box;width:100%;background:#e4e4e4;padding:2px;&quot;&gt;Steps&lt;/div&gt;&lt;table style=&quot;width:100%;font-size:1em;&quot; cellpadding=&quot;2&quot; cellspacing=&quot;0&quot;&gt;&lt;tbody&gt;&lt;tr&gt;&lt;td&gt;&lt;br&gt;&lt;/td&gt;&lt;td&gt;1. 方向检测：0， 180，270&lt;br&gt;cls_result = self.image_orientation_predictor.predict(input_data=img)&lt;br&gt;&lt;span style=&quot;font-family: &amp;quot;JetBrains Mono&amp;quot;, monospace; font-size: 9.8pt; background-color: rgb(30, 31, 34); color: rgb(188, 190, 196);&quot;&gt;&lt;br&gt;&lt;/span&gt;2. 版面分析&lt;br&gt;layout_res, elapse = self.layout_predictor(img)&lt;br&gt;结果：bbox, table, 文字&lt;br&gt;&lt;font face=&quot;JetBrains Mono, monospace&quot; color=&quot;#bcbec4&quot;&gt;&lt;span style=&quot;font-size: 13.0667px; background-color: rgb(30, 31, 34);&quot;&gt;&lt;br&gt;&lt;/span&gt;&lt;/font&gt;&lt;/td&gt;&lt;/tr&gt;&lt;tr&gt;&lt;td&gt;&lt;br&gt;&lt;/td&gt;&lt;td&gt;3. 循环处理layout_res&lt;br&gt;&lt;/td&gt;&lt;/tr&gt;&lt;tr&gt;&lt;td&gt;&lt;/td&gt;&lt;td&gt;&amp;nbsp; &amp;nbsp;&amp;nbsp;region in layout_res:&lt;br&gt;&amp;nbsp; &amp;nbsp; &amp;nbsp; &amp;nbsp;&amp;nbsp;if region[&#39;bbox&#39;] is not None&lt;br&gt;&amp;nbsp; &amp;nbsp; &amp;nbsp; &amp;nbsp; if region[&#39;label&#39;] == &#39;table&#39;&lt;br&gt;&lt;span style=&quot;white-space: pre;&quot;&gt;&#x9;&lt;/span&gt;if self.text_system is not None&lt;br&gt;&lt;br&gt;4. 实例化3个处理器&lt;br&gt;&amp;nbsp; &amp;nbsp; &amp;nbsp;self.layout_predictor&lt;br&gt;&amp;nbsp; &amp;nbsp; &amp;nbsp;self.table_system&lt;br&gt;&amp;nbsp; &amp;nbsp; &amp;nbsp;self.text_system&lt;/td&gt;&lt;/tr&gt;&lt;/tbody&gt;&lt;/table&gt;" style="verticalAlign=top;align=left;overflow=fill;html=1;whiteSpace=wrap;" parent="fFpk34Q_P3umQofqK6B3-34" vertex="1">
          <mxGeometry y="220" width="290" height="290" as="geometry" />
        </mxCell>
        <mxCell id="fFpk34Q_P3umQofqK6B3-39" value="1" style="endArrow=open;html=1;endSize=12;startArrow=diamondThin;startSize=14;startFill=1;edgeStyle=orthogonalEdgeStyle;align=left;verticalAlign=bottom;rounded=0;" parent="WIyWlLk6GJQsqaUBKTNV-1" edge="1">
          <mxGeometry x="-1" y="3" relative="1" as="geometry">
            <mxPoint x="320" y="82" as="sourcePoint" />
            <mxPoint x="430" y="82" as="targetPoint" />
          </mxGeometry>
        </mxCell>
        <mxCell id="fFpk34Q_P3umQofqK6B3-47" value="predict_layout.py LayoutPredictor" style="swimlane;fontStyle=2;align=center;verticalAlign=top;childLayout=stackLayout;horizontal=1;startSize=26;horizontalStack=0;resizeParent=1;resizeLast=0;collapsible=1;marginBottom=0;rounded=0;shadow=0;strokeWidth=1;" parent="WIyWlLk6GJQsqaUBKTNV-1" vertex="1">
          <mxGeometry x="22" y="638" width="218" height="185" as="geometry">
            <mxRectangle x="230" y="140" width="160" height="26" as="alternateBounds" />
          </mxGeometry>
        </mxCell>
        <mxCell id="fFpk34Q_P3umQofqK6B3-48" value="&lt;span style=&quot;text-wrap: nowrap;&quot;&gt;__init__&lt;/span&gt;" style="shape=process;whiteSpace=wrap;html=1;backgroundOutline=1;" parent="fFpk34Q_P3umQofqK6B3-47" vertex="1">
          <mxGeometry y="26" width="218" height="34" as="geometry" />
        </mxCell>
        <mxCell id="fFpk34Q_P3umQofqK6B3-49" value="&lt;div style=&quot;box-sizing:border-box;width:100%;background:#e4e4e4;padding:2px;&quot;&gt;Parameters&lt;/div&gt;&lt;table style=&quot;width:100%;font-size:1em;&quot; cellpadding=&quot;2&quot; cellspacing=&quot;0&quot;&gt;&lt;tbody&gt;&lt;tr&gt;&lt;td&gt;&lt;br&gt;&lt;/td&gt;&lt;td&gt;self.preprocess_op:&amp;nbsp;&lt;br&gt;self.postprocess_op&lt;br&gt;self.predictor_layout&lt;br&gt;&lt;/td&gt;&lt;/tr&gt;&lt;tr&gt;&lt;td&gt;&lt;br&gt;&lt;/td&gt;&lt;td&gt;&lt;br&gt;&lt;/td&gt;&lt;/tr&gt;&lt;tr&gt;&lt;td&gt;&lt;/td&gt;&lt;td&gt;&lt;br&gt;&lt;/td&gt;&lt;/tr&gt;&lt;/tbody&gt;&lt;/table&gt;" style="verticalAlign=top;align=left;overflow=fill;html=1;whiteSpace=wrap;" parent="fFpk34Q_P3umQofqK6B3-47" vertex="1">
          <mxGeometry y="60" width="218" height="90" as="geometry" />
        </mxCell>
        <mxCell id="fFpk34Q_P3umQofqK6B3-50" value="" style="line;html=1;strokeWidth=1;align=left;verticalAlign=middle;spacingTop=-1;spacingLeft=3;spacingRight=3;rotatable=0;labelPosition=right;points=[];portConstraint=eastwest;" parent="fFpk34Q_P3umQofqK6B3-47" vertex="1">
          <mxGeometry y="150" width="218" height="30" as="geometry" />
        </mxCell>
        <mxCell id="fFpk34Q_P3umQofqK6B3-54" value="pp-ocr tools.infer.predict_system" style="swimlane;fontStyle=2;align=center;verticalAlign=top;childLayout=stackLayout;horizontal=1;startSize=26;horizontalStack=0;resizeParent=1;resizeLast=0;collapsible=1;marginBottom=0;rounded=0;shadow=0;strokeWidth=1;" parent="WIyWlLk6GJQsqaUBKTNV-1" vertex="1">
          <mxGeometry x="822" y="665" width="270" height="65" as="geometry">
            <mxRectangle x="230" y="140" width="160" height="26" as="alternateBounds" />
          </mxGeometry>
        </mxCell>
        <mxCell id="fFpk34Q_P3umQofqK6B3-57" value="" style="line;html=1;strokeWidth=1;align=left;verticalAlign=middle;spacingTop=-1;spacingLeft=3;spacingRight=3;rotatable=0;labelPosition=right;points=[];portConstraint=eastwest;" parent="fFpk34Q_P3umQofqK6B3-54" vertex="1">
          <mxGeometry y="26" width="270" height="30" as="geometry" />
        </mxCell>
        <mxCell id="fFpk34Q_P3umQofqK6B3-63" value="predict_table.py TableSystem" style="swimlane;fontStyle=2;align=center;verticalAlign=top;childLayout=stackLayout;horizontal=1;startSize=26;horizontalStack=0;resizeParent=1;resizeLast=0;collapsible=1;marginBottom=0;rounded=0;shadow=0;strokeWidth=1;" parent="WIyWlLk6GJQsqaUBKTNV-1" vertex="1">
          <mxGeometry x="374" y="638" width="290" height="372" as="geometry">
            <mxRectangle x="230" y="140" width="160" height="26" as="alternateBounds" />
          </mxGeometry>
        </mxCell>
        <mxCell id="v6Uf8Jm5niP9Cs89eGYP-10" value="&lt;span style=&quot;text-wrap: nowrap;&quot;&gt;__init__&lt;/span&gt;" style="shape=process;whiteSpace=wrap;html=1;backgroundOutline=1;" vertex="1" parent="fFpk34Q_P3umQofqK6B3-63">
          <mxGeometry y="26" width="290" height="34" as="geometry" />
        </mxCell>
        <mxCell id="v6Uf8Jm5niP9Cs89eGYP-11" value="&lt;div style=&quot;box-sizing:border-box;width:100%;background:#e4e4e4;padding:2px;&quot;&gt;Parameters&lt;/div&gt;&lt;table style=&quot;width:100%;font-size:1em;&quot; cellpadding=&quot;2&quot; cellspacing=&quot;0&quot;&gt;&lt;tbody&gt;&lt;tr&gt;&lt;td&gt;&lt;br&gt;&lt;/td&gt;&lt;td&gt;&lt;/td&gt;&lt;td&gt;predict_det.TextDetector&lt;br&gt;predict_rec.TextRecognizer&lt;br&gt;predict_strture.TableStructurer&lt;br&gt;&lt;/td&gt;&lt;td&gt;&lt;br&gt;&lt;/td&gt;&lt;/tr&gt;&lt;/tbody&gt;&lt;/table&gt;" style="verticalAlign=top;align=left;overflow=fill;html=1;whiteSpace=wrap;" vertex="1" parent="fFpk34Q_P3umQofqK6B3-63">
          <mxGeometry y="60" width="290" height="90" as="geometry" />
        </mxCell>
        <mxCell id="fFpk34Q_P3umQofqK6B3-66" value="" style="line;html=1;strokeWidth=1;align=left;verticalAlign=middle;spacingTop=-1;spacingLeft=3;spacingRight=3;rotatable=0;labelPosition=right;points=[];portConstraint=eastwest;" parent="fFpk34Q_P3umQofqK6B3-63" vertex="1">
          <mxGeometry y="150" width="290" height="30" as="geometry" />
        </mxCell>
        <mxCell id="fFpk34Q_P3umQofqK6B3-67" value="__call__" style="shape=process;whiteSpace=wrap;html=1;backgroundOutline=1;" parent="fFpk34Q_P3umQofqK6B3-63" vertex="1">
          <mxGeometry y="180" width="290" height="30" as="geometry" />
        </mxCell>
        <mxCell id="fFpk34Q_P3umQofqK6B3-68" value="&lt;div style=&quot;box-sizing:border-box;width:100%;background:#e4e4e4;padding:2px;&quot;&gt;Steps&lt;/div&gt;&lt;table style=&quot;width:100%;font-size:1em;&quot; cellpadding=&quot;2&quot; cellspacing=&quot;0&quot;&gt;&lt;tbody&gt;&lt;tr&gt;&lt;td&gt;&lt;br&gt;&lt;/td&gt;&lt;td&gt;1.structure_res, elapse = self._structure(copy.deepcopy(img))&lt;span style=&quot;font-family: &amp;quot;JetBrains Mono&amp;quot;, monospace; font-size: 9.8pt; background-color: rgb(30, 31, 34); color: rgb(188, 190, 196);&quot;&gt;&lt;br&gt;&lt;/span&gt;&lt;br&gt;2. pp-ocr process&lt;br&gt;dt_boxes, rec_res, det_elapse, rec_elapse = self._ocr(copy.deepcopy(img))&lt;br&gt;&lt;/td&gt;&lt;/tr&gt;&lt;/tbody&gt;&lt;/table&gt;" style="verticalAlign=top;align=left;overflow=fill;html=1;whiteSpace=wrap;" parent="fFpk34Q_P3umQofqK6B3-63" vertex="1">
          <mxGeometry y="210" width="290" height="114" as="geometry" />
        </mxCell>
        <mxCell id="v6Uf8Jm5niP9Cs89eGYP-0" value="utility.py create_predictor" style="swimlane;fontStyle=2;align=center;verticalAlign=top;childLayout=stackLayout;horizontal=1;startSize=26;horizontalStack=0;resizeParent=1;resizeLast=0;collapsible=1;marginBottom=0;rounded=0;shadow=0;strokeWidth=1;" vertex="1" parent="WIyWlLk6GJQsqaUBKTNV-1">
          <mxGeometry x="21" y="861" width="220" height="220" as="geometry">
            <mxRectangle x="230" y="140" width="160" height="26" as="alternateBounds" />
          </mxGeometry>
        </mxCell>
        <mxCell id="v6Uf8Jm5niP9Cs89eGYP-1" value="" style="line;html=1;strokeWidth=1;align=left;verticalAlign=middle;spacingTop=-1;spacingLeft=3;spacingRight=3;rotatable=0;labelPosition=right;points=[];portConstraint=eastwest;" vertex="1" parent="v6Uf8Jm5niP9Cs89eGYP-0">
          <mxGeometry y="26" width="220" height="30" as="geometry" />
        </mxCell>
        <mxCell id="v6Uf8Jm5niP9Cs89eGYP-2" value="__call__" style="shape=process;whiteSpace=wrap;html=1;backgroundOutline=1;" vertex="1" parent="v6Uf8Jm5niP9Cs89eGYP-0">
          <mxGeometry y="56" width="220" height="30" as="geometry" />
        </mxCell>
        <mxCell id="v6Uf8Jm5niP9Cs89eGYP-3" value="&lt;div style=&quot;box-sizing:border-box;width:100%;background:#e4e4e4;padding:2px;&quot;&gt;Steps&lt;/div&gt;&lt;table style=&quot;width:100%;font-size:1em;&quot; cellpadding=&quot;2&quot; cellspacing=&quot;0&quot;&gt;&lt;tbody&gt;&lt;tr&gt;&lt;td&gt;&lt;br&gt;&lt;/td&gt;&lt;td&gt;1.use_onnx&lt;br&gt;&amp;nbsp; &amp;nbsp;model_dir&lt;span style=&quot;font-family: &amp;quot;JetBrains Mono&amp;quot;, monospace; font-size: 9.8pt; background-color: rgb(30, 31, 34); color: rgb(188, 190, 196);&quot;&gt;&lt;br&gt;&lt;/span&gt;&lt;br&gt;2. import onnxruntime as ort&lt;br&gt;&amp;nbsp; &amp;nbsp;&amp;nbsp;sess = ort.InferenceSession(model_file_path)&lt;/td&gt;&lt;/tr&gt;&lt;/tbody&gt;&lt;/table&gt;" style="verticalAlign=top;align=left;overflow=fill;html=1;whiteSpace=wrap;" vertex="1" parent="v6Uf8Jm5niP9Cs89eGYP-0">
          <mxGeometry y="86" width="220" height="114" as="geometry" />
        </mxCell>
        <mxCell id="v6Uf8Jm5niP9Cs89eGYP-8" value="1" style="endArrow=open;html=1;endSize=12;startArrow=diamondThin;startSize=14;startFill=1;edgeStyle=orthogonalEdgeStyle;align=left;verticalAlign=bottom;rounded=0;exitX=0.5;exitY=1;exitDx=0;exitDy=0;entryX=0.5;entryY=0;entryDx=0;entryDy=0;" edge="1" parent="WIyWlLk6GJQsqaUBKTNV-1" source="fFpk34Q_P3umQofqK6B3-47" target="v6Uf8Jm5niP9Cs89eGYP-0">
          <mxGeometry x="-1" y="3" relative="1" as="geometry">
            <mxPoint x="316" y="887" as="sourcePoint" />
            <mxPoint x="290" y="1015" as="targetPoint" />
          </mxGeometry>
        </mxCell>
        <mxCell id="v6Uf8Jm5niP9Cs89eGYP-9" value="1" style="endArrow=open;html=1;endSize=12;startArrow=diamondThin;startSize=14;startFill=1;edgeStyle=orthogonalEdgeStyle;align=left;verticalAlign=bottom;rounded=0;entryX=0.5;entryY=0;entryDx=0;entryDy=0;exitX=0.5;exitY=1;exitDx=0;exitDy=0;" edge="1" parent="WIyWlLk6GJQsqaUBKTNV-1" source="fFpk34Q_P3umQofqK6B3-34" target="fFpk34Q_P3umQofqK6B3-47">
          <mxGeometry x="-1" y="3" relative="1" as="geometry">
            <mxPoint x="570" y="590" as="sourcePoint" />
            <mxPoint x="565" y="688" as="targetPoint" />
          </mxGeometry>
        </mxCell>
        <mxCell id="v6Uf8Jm5niP9Cs89eGYP-12" value="1" style="endArrow=open;html=1;endSize=12;startArrow=diamondThin;startSize=14;startFill=1;edgeStyle=orthogonalEdgeStyle;align=left;verticalAlign=bottom;rounded=0;exitX=0.5;exitY=1;exitDx=0;exitDy=0;" edge="1" parent="WIyWlLk6GJQsqaUBKTNV-1" source="fFpk34Q_P3umQofqK6B3-34" target="fFpk34Q_P3umQofqK6B3-63">
          <mxGeometry x="-1" y="3" relative="1" as="geometry">
            <mxPoint x="591" y="570" as="sourcePoint" />
            <mxPoint x="141" y="648" as="targetPoint" />
          </mxGeometry>
        </mxCell>
        <mxCell id="v6Uf8Jm5niP9Cs89eGYP-13" value="1" style="endArrow=open;html=1;endSize=12;startArrow=diamondThin;startSize=14;startFill=1;edgeStyle=orthogonalEdgeStyle;align=left;verticalAlign=bottom;rounded=0;entryX=0.5;entryY=1;entryDx=0;entryDy=0;exitX=1;exitY=0.75;exitDx=0;exitDy=0;" edge="1" parent="WIyWlLk6GJQsqaUBKTNV-1" source="fFpk34Q_P3umQofqK6B3-68" target="fFpk34Q_P3umQofqK6B3-54">
          <mxGeometry x="-1" y="3" relative="1" as="geometry">
            <mxPoint x="660" y="690" as="sourcePoint" />
            <mxPoint x="445" y="648" as="targetPoint" />
          </mxGeometry>
        </mxCell>
        <mxCell id="v6Uf8Jm5niP9Cs89eGYP-14" value="1" style="endArrow=open;html=1;endSize=12;startArrow=diamondThin;startSize=14;startFill=1;edgeStyle=orthogonalEdgeStyle;align=left;verticalAlign=bottom;rounded=0;exitX=0.5;exitY=1;exitDx=0;exitDy=0;" edge="1" parent="WIyWlLk6GJQsqaUBKTNV-1" source="fFpk34Q_P3umQofqK6B3-34" target="fFpk34Q_P3umQofqK6B3-54">
          <mxGeometry x="-1" y="3" relative="1" as="geometry">
            <mxPoint x="591" y="570" as="sourcePoint" />
            <mxPoint x="445" y="648" as="targetPoint" />
            <Array as="points">
              <mxPoint x="581" y="598" />
              <mxPoint x="955" y="598" />
            </Array>
          </mxGeometry>
        </mxCell>
      </root>
    </mxGraphModel>
  </diagram>
</mxfile>
